<?xml version="1.0" encoding="UTF-8" standalone="no"?>
<!DOCTYPE svg PUBLIC "-//W3C//DTD SVG 1.1//EN"
 "http://www.w3.org/Graphics/SVG/1.1/DTD/svg11.dtd">
<!-- Generated by graphviz version 2.43.0 (0)
 -->
<!-- Title: EchoLoadClient Pages: 1 -->
<svg width="1003pt" height="491pt"
 viewBox="0.00 0.00 1003.00 491.15" xmlns="http://www.w3.org/2000/svg" xmlns:xlink="http://www.w3.org/1999/xlink">
<g id="graph0" class="graph" transform="scale(1 1) rotate(0) translate(4 487.15)">
<title>EchoLoadClient</title>
<polygon fill="white" stroke="transparent" points="-4,4 -4,-487.15 999,-487.15 999,4 -4,4"/>
<g id="clust1" class="cluster">
<title>cluster_client</title>
<path fill="none" stroke="#b3b3b3" d="M20,-212.15C20,-212.15 962.5,-212.15 962.5,-212.15 968.5,-212.15 974.5,-218.15 974.5,-224.15 974.5,-224.15 974.5,-463.15 974.5,-463.15 974.5,-469.15 968.5,-475.15 962.5,-475.15 962.5,-475.15 20,-475.15 20,-475.15 14,-475.15 8,-469.15 8,-463.15 8,-463.15 8,-224.15 8,-224.15 8,-218.15 14,-212.15 20,-212.15"/>
<text text-anchor="middle" x="491.25" y="-459.95" font-family="Times,serif" font-size="14.00">Echo Load Test Client (Actor Model)</text>
</g>
<g id="clust2" class="cluster">
<title>cluster_clients</title>
<polygon fill="none" stroke="#cccccc" stroke-dasharray="5,2" points="319.5,-220.15 319.5,-403.15 569.5,-403.15 569.5,-220.15 319.5,-220.15"/>
<text text-anchor="middle" x="444.5" y="-387.95" font-family="Times,serif" font-size="14.00">N parallel ClientService workers</text>
</g>
<!-- Main -->
<g id="node1" class="node">
<title>Main</title>
<path fill="lightblue" stroke="black" d="M136,-343.15C136,-343.15 28,-343.15 28,-343.15 22,-343.15 16,-337.15 16,-331.15 16,-331.15 16,-319.15 16,-319.15 16,-313.15 22,-307.15 28,-307.15 28,-307.15 136,-307.15 136,-307.15 142,-307.15 148,-313.15 148,-319.15 148,-319.15 148,-331.15 148,-331.15 148,-337.15 142,-343.15 136,-343.15"/>
<text text-anchor="middle" x="82" y="-328.15" font-family="Helvetica,sans-Serif" font-size="10.00">Main (run)</text>
<text text-anchor="middle" x="82" y="-317.15" font-family="Helvetica,sans-Serif" font-size="10.00">parse CLI, spawn actors</text>
</g>
<!-- ReportingService -->
<g id="node2" class="node">
<title>ReportingService</title>
<path fill="lightyellow" stroke="black" d="M954.5,-390.65C954.5,-390.65 864.5,-390.65 864.5,-390.65 858.5,-390.65 852.5,-384.65 852.5,-378.65 852.5,-378.65 852.5,-361.65 852.5,-361.65 852.5,-355.65 858.5,-349.65 864.5,-349.65 864.5,-349.65 954.5,-349.65 954.5,-349.65 960.5,-349.65 966.5,-355.65 966.5,-361.65 966.5,-361.65 966.5,-378.65 966.5,-378.65 966.5,-384.65 960.5,-390.65 954.5,-390.65"/>
<text text-anchor="middle" x="909.5" y="-378.65" font-family="Helvetica,sans-Serif" font-size="10.00">ReportingService</text>
<text text-anchor="middle" x="909.5" y="-367.65" font-family="Helvetica,sans-Serif" font-size="10.00">(Aggregates counts,</text>
<text text-anchor="middle" x="909.5" y="-356.65" font-family="Helvetica,sans-Serif" font-size="10.00">logs throughput)</text>
</g>
<!-- Main&#45;&gt;ReportingService -->
<g id="edge4" class="edge">
<title>Main&#45;&gt;ReportingService</title>
<path fill="none" stroke="blue" d="M121.67,-343.25C167.63,-363.64 247.21,-395.47 319.5,-407.15 532.98,-441.64 594.36,-459.56 806,-415.15 825.26,-411.11 845.32,-403.22 862.53,-395.17"/>
<polygon fill="blue" stroke="blue" points="864.3,-398.2 871.78,-390.7 861.25,-391.9 864.3,-398.2"/>
<text text-anchor="middle" x="444.5" y="-443.95" font-family="Times,serif" font-size="14.00">spawn reporter</text>
</g>
<!-- Client0 -->
<g id="node3" class="node">
<title>Client0</title>
<path fill="white" stroke="black" d="M481.5,-264.15C481.5,-264.15 407.5,-264.15 407.5,-264.15 401.5,-264.15 395.5,-258.15 395.5,-252.15 395.5,-252.15 395.5,-240.15 395.5,-240.15 395.5,-234.15 401.5,-228.15 407.5,-228.15 407.5,-228.15 481.5,-228.15 481.5,-228.15 487.5,-228.15 493.5,-234.15 493.5,-240.15 493.5,-240.15 493.5,-252.15 493.5,-252.15 493.5,-258.15 487.5,-264.15 481.5,-264.15"/>
<text text-anchor="middle" x="444.5" y="-249.15" font-family="Helvetica,sans-Serif" font-size="10.00">ClientService #0</text>
<text text-anchor="middle" x="444.5" y="-238.15" font-family="Helvetica,sans-Serif" font-size="10.00">(send/recv loop)</text>
</g>
<!-- Main&#45;&gt;Client0 -->
<g id="edge1" class="edge">
<title>Main&#45;&gt;Client0</title>
<path fill="none" stroke="blue" d="M111.07,-306.98C126.64,-297.76 146.72,-287.25 166,-281.15 239.22,-257.98 327.88,-250.08 384.96,-247.43"/>
<polygon fill="blue" stroke="blue" points="385.4,-250.91 395.24,-246.99 385.1,-243.92 385.4,-250.91"/>
<text text-anchor="middle" x="231" y="-284.95" font-family="Times,serif" font-size="14.00">spawn with config</text>
</g>
<!-- Client1 -->
<g id="node4" class="node">
<title>Client1</title>
<path fill="white" stroke="black" d="M481.5,-372.15C481.5,-372.15 407.5,-372.15 407.5,-372.15 401.5,-372.15 395.5,-366.15 395.5,-360.15 395.5,-360.15 395.5,-348.15 395.5,-348.15 395.5,-342.15 401.5,-336.15 407.5,-336.15 407.5,-336.15 481.5,-336.15 481.5,-336.15 487.5,-336.15 493.5,-342.15 493.5,-348.15 493.5,-348.15 493.5,-360.15 493.5,-360.15 493.5,-366.15 487.5,-372.15 481.5,-372.15"/>
<text text-anchor="middle" x="444.5" y="-351.65" font-family="Helvetica,sans-Serif" font-size="10.00">ClientService #1</text>
</g>
<!-- Main&#45;&gt;Client1 -->
<g id="edge2" class="edge">
<title>Main&#45;&gt;Client1</title>
<path fill="none" stroke="blue" d="M148.28,-330.4C215.89,-335.84 320.52,-344.26 385.36,-349.47"/>
<polygon fill="blue" stroke="blue" points="385.16,-352.97 395.41,-350.28 385.72,-345.99 385.16,-352.97"/>
<text text-anchor="middle" x="231" y="-345.95" font-family="Times,serif" font-size="14.00">...</text>
</g>
<!-- ClientN -->
<g id="node5" class="node">
<title>ClientN</title>
<path fill="white" stroke="black" d="M482.5,-318.15C482.5,-318.15 406.5,-318.15 406.5,-318.15 400.5,-318.15 394.5,-312.15 394.5,-306.15 394.5,-306.15 394.5,-294.15 394.5,-294.15 394.5,-288.15 400.5,-282.15 406.5,-282.15 406.5,-282.15 482.5,-282.15 482.5,-282.15 488.5,-282.15 494.5,-288.15 494.5,-294.15 494.5,-294.15 494.5,-306.15 494.5,-306.15 494.5,-312.15 488.5,-318.15 482.5,-318.15"/>
<text text-anchor="middle" x="444.5" y="-297.65" font-family="Helvetica,sans-Serif" font-size="10.00">ClientService #N</text>
</g>
<!-- Main&#45;&gt;ClientN -->
<g id="edge3" class="edge">
<title>Main&#45;&gt;ClientN</title>
<path fill="none" stroke="blue" d="M148.1,-311.59C154.13,-310.64 160.17,-309.8 166,-309.15 240.86,-300.77 327.73,-299.27 384.06,-299.37"/>
<polygon fill="blue" stroke="blue" points="384.19,-302.87 394.21,-299.41 384.22,-295.87 384.19,-302.87"/>
<text text-anchor="middle" x="231" y="-312.95" font-family="Times,serif" font-size="14.00">...</text>
</g>
<!-- Client0&#45;&gt;ReportingService -->
<g id="edge11" class="edge">
<title>Client0&#45;&gt;ReportingService</title>
<path fill="none" stroke="red" d="M493.5,-252.53C517,-256.67 545.36,-263.19 569.5,-273.15 580.95,-277.87 581.49,-283.56 593,-288.15 682.56,-323.83 713.49,-302.01 806,-329.15 821.46,-333.69 837.83,-339.66 852.83,-345.65"/>
<polygon fill="red" stroke="red" points="851.89,-349.05 862.47,-349.57 854.52,-342.56 851.89,-349.05"/>
<text text-anchor="middle" x="699.5" y="-332.95" font-family="Times,serif" font-size="14.00">ReportUpdate {count:1}</text>
</g>
<!-- Server -->
<g id="node6" class="node">
<title>Server</title>
<ellipse fill="white" stroke="black" cx="909.5" cy="-129.15" rx="52.15" ry="21.43"/>
<text text-anchor="middle" x="909.5" y="-132.15" font-family="Helvetica,sans-Serif" font-size="10.00">Echo Server</text>
<text text-anchor="middle" x="909.5" y="-121.15" font-family="Helvetica,sans-Serif" font-size="10.00">(remote)</text>
</g>
<!-- Client0&#45;&gt;Server -->
<g id="edge5" class="edge">
<title>Client0&#45;&gt;Server</title>
<path fill="none" stroke="darkgreen" d="M451.26,-228.07C466.28,-184.34 511.28,-73.3 593,-30.15 676.71,14.05 718.23,5.32 806,-30.15 840.88,-44.24 870.49,-76.53 888.78,-100.42"/>
<polygon fill="darkgreen" stroke="darkgreen" points="886,-102.54 894.77,-108.47 891.62,-98.36 886,-102.54"/>
<text text-anchor="middle" x="699.5" y="-33.95" font-family="Times,serif" font-size="14.00">TCP connect/send message(s)</text>
</g>
<!-- Updates -->
<g id="node7" class="node">
<title>Updates</title>
<polygon fill="white" stroke="black" points="989,-204.15 824,-204.15 824,-168.15 995,-168.15 995,-198.15 989,-204.15"/>
<polyline fill="none" stroke="black" points="989,-204.15 989,-198.15 "/>
<polyline fill="none" stroke="black" points="995,-198.15 989,-198.15 "/>
<text text-anchor="middle" x="909.5" y="-183.65" font-family="Helvetica,sans-Serif" font-size="10.00">mpsc::channel&lt;ReportUpdate&gt;</text>
</g>
<!-- Client0&#45;&gt;Updates -->
<g id="edge14" class="edge">
<title>Client0&#45;&gt;Updates</title>
<path fill="none" stroke="black" stroke-dasharray="1,5" d="M457.95,-228.13C480.59,-197.17 531.84,-134.91 593,-111.15 637.12,-94.01 767.1,-84.19 806,-111.15 824.73,-124.13 807.5,-143.44 824,-159.15 827.57,-162.55 831.57,-165.52 835.83,-168.11"/>
</g>
<!-- Client1&#45;&gt;ReportingService -->
<g id="edge12" class="edge">
<title>Client1&#45;&gt;ReportingService</title>
<path fill="none" stroke="red" d="M493.79,-360.12C516.97,-363.64 544.98,-368.86 569.5,-376.15 580.38,-379.38 581.88,-383.88 593,-386.15 685.76,-405.06 711.62,-393.47 806,-386.15 817.78,-385.24 830.26,-383.74 842.3,-382.02"/>
<polygon fill="red" stroke="red" points="842.92,-385.46 852.29,-380.53 841.88,-378.54 842.92,-385.46"/>
<text text-anchor="middle" x="699.5" y="-399.95" font-family="Times,serif" font-size="14.00">ReportUpdate {count:1}</text>
</g>
<!-- Client1&#45;&gt;Server -->
<g id="edge6" class="edge">
<title>Client1&#45;&gt;Server</title>
<path fill="none" stroke="darkgreen" d="M493.56,-354.23C518.78,-351.88 548.68,-345 569.5,-327.15 591.56,-308.24 569.8,-283.64 593,-266.15 630.95,-237.54 770.56,-278.8 806,-247.15 835.77,-220.56 797.81,-189.27 824,-159.15 831.19,-150.87 840.83,-144.88 851.01,-140.54"/>
<polygon fill="darkgreen" stroke="darkgreen" points="852.33,-143.79 860.47,-137 849.87,-137.23 852.33,-143.79"/>
<text text-anchor="middle" x="699.5" y="-269.95" font-family="Times,serif" font-size="14.00">TCP connect/send message(s)</text>
</g>
<!-- Client1&#45;&gt;Updates -->
<g id="edge15" class="edge">
<title>Client1&#45;&gt;Updates</title>
<path fill="none" stroke="black" stroke-dasharray="1,5" d="M493.67,-347.39C517.08,-343.17 545.32,-336.69 569.5,-327.15 580.81,-322.69 581.51,-317.13 593,-313.15 638.1,-297.5 770.61,-317.2 806,-285.15 832.05,-261.56 799.46,-233.31 824,-208.15 825.38,-206.74 826.83,-205.41 828.35,-204.17"/>
</g>
<!-- ClientN&#45;&gt;ReportingService -->
<g id="edge13" class="edge">
<title>ClientN&#45;&gt;ReportingService</title>
<path fill="none" stroke="red" d="M494.56,-304.93C518.19,-308.67 546.34,-315.33 569.5,-327.15 581.98,-333.52 580.1,-342.7 593,-348.15 615.27,-357.55 756.18,-364.43 841.98,-367.8"/>
<polygon fill="red" stroke="red" points="842.03,-371.31 852.16,-368.2 842.3,-364.31 842.03,-371.31"/>
<text text-anchor="middle" x="699.5" y="-368.95" font-family="Times,serif" font-size="14.00">ReportUpdate {count:1}</text>
</g>
<!-- ClientN&#45;&gt;Server -->
<g id="edge7" class="edge">
<title>ClientN&#45;&gt;Server</title>
<path fill="none" stroke="darkgreen" d="M494.61,-301.37C520.15,-299.36 550.01,-292.45 569.5,-273.15 602.87,-240.11 557.99,-201.44 593,-170.15 628.52,-138.41 758.82,-152.72 806,-146.15 820.73,-144.1 836.61,-141.61 851.37,-139.17"/>
<polygon fill="darkgreen" stroke="darkgreen" points="852.09,-142.59 861.38,-137.49 850.94,-135.69 852.09,-142.59"/>
<text text-anchor="middle" x="699.5" y="-173.95" font-family="Times,serif" font-size="14.00">TCP connect/send message(s)</text>
</g>
<!-- ClientN&#45;&gt;Updates -->
<g id="edge16" class="edge">
<title>ClientN&#45;&gt;Updates</title>
<path fill="none" stroke="black" stroke-dasharray="1,5" d="M494.78,-300.11C519.74,-297.65 549.01,-290.72 569.5,-273.15 591.56,-254.24 569.74,-229.56 593,-212.15 611.12,-198.58 736.59,-191.71 823.73,-188.53"/>
</g>
<!-- Server&#45;&gt;Client0 -->
<g id="edge8" class="edge">
<title>Server&#45;&gt;Client0</title>
<path fill="none" stroke="darkgreen" d="M882.07,-110.98C862.16,-98.44 833.64,-82.87 806,-76.15 714.02,-53.78 679.12,-36.85 593,-76.15 528.33,-105.66 481.09,-179.07 459.16,-219.09"/>
<polygon fill="darkgreen" stroke="darkgreen" points="456.01,-217.56 454.38,-228.03 462.18,-220.87 456.01,-217.56"/>
<text text-anchor="middle" x="699.5" y="-79.95" font-family="Times,serif" font-size="14.00">Echo reply</text>
</g>
<!-- Server&#45;&gt;Client1 -->
<g id="edge9" class="edge">
<title>Server&#45;&gt;Client1</title>
<path fill="none" stroke="darkgreen" d="M862.98,-139C849.42,-143.52 835.2,-149.98 824,-159.15 811.97,-169 818.78,-180.3 806,-189.15 726.88,-243.95 662.8,-161.89 593,-228.15 560.2,-259.29 601.77,-295.47 569.5,-327.15 552.24,-344.09 526.99,-351.47 503.77,-354.37"/>
<polygon fill="darkgreen" stroke="darkgreen" points="503.23,-350.9 493.63,-355.38 503.92,-357.87 503.23,-350.9"/>
<text text-anchor="middle" x="699.5" y="-231.95" font-family="Times,serif" font-size="14.00">Echo reply</text>
</g>
<!-- Server&#45;&gt;ClientN -->
<g id="edge10" class="edge">
<title>Server&#45;&gt;ClientN</title>
<path fill="none" stroke="darkgreen" d="M860.59,-121.55C782.36,-110.31 631.99,-93.94 593,-127.15 542.97,-169.77 614.68,-225.42 569.5,-273.15 553.01,-290.57 528.11,-298.06 504.94,-300.91"/>
<polygon fill="darkgreen" stroke="darkgreen" points="504.42,-297.44 494.81,-301.89 505.1,-304.41 504.42,-297.44"/>
<text text-anchor="middle" x="699.5" y="-130.95" font-family="Times,serif" font-size="14.00">Echo reply</text>
</g>
<!-- Updates&#45;&gt;ReportingService -->
<g id="edge17" class="edge">
<title>Updates&#45;&gt;ReportingService</title>
<path fill="none" stroke="black" stroke-dasharray="1,5" d="M909.5,-204.48C909.5,-249.4 909.5,-294.32 909.5,-339.25"/>
<polygon fill="black" stroke="black" points="906,-339.44 909.5,-349.44 913,-339.44 906,-339.44"/>
</g>
</g>
</svg>
